<?xml version="1.0" encoding="utf-8"?>
<!-- Generator: Adobe Illustrator 21.0.2, SVG Export Plug-In . SVG Version: 6.00 Build 0)  -->
<!DOCTYPE svg PUBLIC "-//W3C//DTD SVG 1.1//EN" "http://www.w3.org/Graphics/SVG/1.1/DTD/svg11.dtd">
<svg version="1.1" id="_x32_" xmlns="http://www.w3.org/2000/svg" xmlns:xlink="http://www.w3.org/1999/xlink" x="0px" y="0px"
	 viewBox="0 0 512 512" style="enable-background:new 0 0 512 512;" xml:space="preserve">
<style type="text/css">
	.st0{fill:#282C37;}
	.st1{fill:#FFFFFF;}
</style>
<rect x="-0.5" y="1.3" class="st0" width="512" height="512"/>
<g>
	<path class="st1" d="M229.7,256.8c-0.1,2.1-0.3,4.2-0.5,6.5c-0.3,2.3-0.6,4.6-1.1,7.2c-0.5,2.4-1.5,6.4-3,9.8
		c-0.4,0.9-0.8,1.7-1.3,2.5l-1.2,2c-0.6,1-1.2,2-1.9,3c-1.3,2-2.6,3.9-4.1,5.8c-2.9,3.8-6,7.5-9.5,11c-13.8,14-32.4,24.5-52.8,28.2
		c-10.2,1.9-20.7,2.1-30.8,0.6c-10.2-1.5-20-4.7-28.7-9.3c-17.6-9-31.5-23.5-39.5-39.3c-8.2-15.8-10.8-32.5-9.8-47
		c1-14.5,5.7-26.7,11-35.7c5.3-9,11.1-15,15.3-18.7c4.3-3.6,7-5,7.4-4.7c0.4,0.4-1.4,2.9-4.2,7.4c-2.8,4.5-6.5,11.3-9.3,20.1
		c-2.8,8.8-4.5,19.7-3.2,31.4c1.3,11.7,5.7,24.1,13.5,34.6c7.7,10.6,18.9,19.1,31.6,23.6c12.7,4.6,26.4,4.9,38.8,1.2
		c12.4-3.6,23.4-11.2,31.4-20.4c2-2.3,3.8-4.7,5.5-7.2c0.8-1.2,1.6-2.5,2.4-3.8l1.1-1.9l0.3-0.5h0l0,0c0-0.1-0.1,0.3,0.1-1
		c0.2-1,0.3-2.3,0.5-3.7c0.1-1.4,0.2-2.8,0.3-4.3c0.1-1.4,0.1-3.1,0.1-4.1h42.1C229.9,252.8,229.8,254.7,229.7,256.8z"/>
	<circle class="st1" cx="181.8" cy="196.3" r="17.4"/>
	<path class="st1" d="M281,251.4h42.1c0,1,0.1,2.8,0.1,4.1c0.1,1.5,0.2,2.9,0.3,4.3c0.1,1.4,0.3,2.7,0.5,3.7c0.2,1.3,0.1,0.9,0.1,1
		l0,0h0l0.3,0.5l1.1,1.9c0.7,1.3,1.5,2.5,2.4,3.8c1.7,2.5,3.5,4.9,5.5,7.2c8,9.2,18.9,16.7,31.4,20.4c12.4,3.7,26.1,3.4,38.8-1.2
		c12.7-4.5,23.9-13,31.6-23.6c7.8-10.5,12.2-23,13.5-34.6c1.3-11.7-0.4-22.6-3.2-31.4c-2.8-8.8-6.5-15.5-9.3-20.1
		c-2.8-4.5-4.6-7-4.2-7.4c0.3-0.3,3.1,1.1,7.4,4.7c4.2,3.6,10,9.6,15.3,18.7c5.2,9,9.9,21.1,11,35.7c1.1,14.4-1.6,31.2-9.8,47
		c-8.1,15.8-21.9,30.2-39.5,39.3c-8.8,4.6-18.6,7.8-28.7,9.3c-10.2,1.5-20.7,1.3-30.8-0.6c-20.4-3.7-39-14.3-52.8-28.2
		c-3.4-3.5-6.6-7.2-9.5-11c-1.4-1.9-2.8-3.9-4.1-5.8c-0.6-1-1.3-2-1.9-3l-1.2-2c-0.5-0.8-0.9-1.7-1.3-2.5c-1.6-3.4-2.6-7.4-3-9.8
		c-0.5-2.6-0.9-5-1.1-7.2c-0.3-2.2-0.4-4.4-0.5-6.5C281.1,255.7,281,253.8,281,251.4z"/>
	<circle class="st1" cx="329.1" cy="197.3" r="17.4"/>
</g>
</svg>
