<?xml version="1.0" encoding="utf-8"?>
<!-- Generator: Adobe Illustrator 21.0.2, SVG Export Plug-In . SVG Version: 6.00 Build 0)  -->
<!DOCTYPE svg PUBLIC "-//W3C//DTD SVG 1.1//EN" "http://www.w3.org/Graphics/SVG/1.1/DTD/svg11.dtd">
<svg version="1.1" id="_x32_" xmlns="http://www.w3.org/2000/svg" xmlns:xlink="http://www.w3.org/1999/xlink" x="0px" y="0px"
	 viewBox="0 0 512 512" style="enable-background:new 0 0 512 512;" xml:space="preserve">
<style type="text/css">
	.st0{fill:#282C37;}
	.st1{fill:#FFFFFF;}
</style>
<rect x="-0.5" y="1.3" class="st0" width="512" height="512"/>
<path class="st1" d="M229.7,281.4c-0.1,2.8-0.3,5.6-0.5,8.5c-0.3,3-0.6,6.1-1.1,9.5c-0.5,3.1-1.5,8.4-3,12.9
	c-0.4,1.1-0.8,2.2-1.3,3.3l-1.2,2.6c-0.6,1.3-1.2,2.6-1.9,3.9c-1.3,2.6-2.6,5.2-4.1,7.7c-2.9,5.1-6,9.9-9.5,14.5
	c-13.8,18.4-32.4,32.2-52.8,37.1c-10.2,2.5-20.7,2.8-30.8,0.8c-10.2-2-20-6.2-28.7-12.2c-17.6-11.9-31.5-30.9-39.5-51.6
	c-8.2-20.7-10.8-42.8-9.8-61.8c1-19.1,5.7-35.1,11-46.9c5.3-11.9,11.1-19.7,15.3-24.5c4.3-4.8,7-6.6,7.4-6.2
	c0.4,0.5-1.4,3.8-4.2,9.7c-2.8,6-6.5,14.8-9.3,26.4c-2.8,11.5-4.5,25.9-3.2,41.3c1.3,15.3,5.7,31.7,13.5,45.5
	c7.7,13.9,18.9,25.1,31.6,31c12.7,6,26.4,6.4,38.8,1.5c12.4-4.8,23.4-14.7,31.4-26.8c2-3,3.8-6.2,5.5-9.4c0.8-1.6,1.6-3.3,2.4-4.9
	l1.1-2.5l0.3-0.6h0l0,0c0-0.1-0.1,0.4,0.1-1.3c0.2-1.3,0.3-3,0.5-4.8c0.1-1.8,0.2-3.7,0.3-5.7c0.1-1.8,0.1-4.1,0.1-5.5h42.1
	C229.9,276.1,229.8,278.5,229.7,281.4z"/>
<circle class="st1" cx="181.8" cy="196.3" r="17.4"/>
<path class="st1" d="M281,274.2h42.1c0,1.4,0.1,3.6,0.1,5.5c0.1,2,0.2,3.9,0.3,5.7c0.1,1.8,0.3,3.5,0.5,4.8c0.2,1.7,0.1,1.1,0.1,1.3
	l0,0h0l0.3,0.6l1.1,2.5c0.7,1.7,1.5,3.3,2.4,4.9c1.7,3.3,3.5,6.4,5.5,9.4c8,12.1,18.9,22,31.4,26.8c12.4,4.9,26.1,4.5,38.8-1.5
	c12.7-5.9,23.9-17,31.6-31c7.8-13.9,12.2-30.2,13.5-45.5c1.3-15.4-0.4-29.7-3.2-41.3c-2.8-11.6-6.5-20.4-9.3-26.4
	c-2.8-5.9-4.6-9.2-4.2-9.7c0.3-0.4,3.1,1.4,7.4,6.2c4.2,4.8,10,12.7,15.3,24.5c5.2,11.8,9.9,27.8,11,46.9c1.1,19-1.6,41-9.8,61.8
	c-8.1,20.7-21.9,39.8-39.5,51.6c-8.8,6-18.6,10.3-28.7,12.2c-10.2,2-20.7,1.7-30.8-0.8c-20.4-4.9-39-18.8-52.8-37.1
	c-3.4-4.6-6.6-9.4-9.5-14.5c-1.4-2.5-2.8-5.1-4.1-7.7c-0.6-1.3-1.3-2.6-1.9-3.9l-1.2-2.6c-0.5-1.1-0.9-2.2-1.3-3.3
	c-1.6-4.4-2.6-9.8-3-12.9c-0.5-3.5-0.9-6.5-1.1-9.5c-0.3-3-0.4-5.8-0.5-8.5C281.1,279.8,281,277.4,281,274.2z"/>
<circle class="st1" cx="329.1" cy="197.3" r="17.4"/>
</svg>
